<svg width="64" height="69" viewBox="0 0 64 69" fill="none" xmlns="http://www.w3.org/2000/svg">
<path d="M42.1777 68.8359C41.9043 68.8359 41.6309 68.7822 41.3711 68.6883C35.3828 67.1856 30.3789 64.1937 26.4961 59.7795C22.5586 55.3117 20.5625 49.8243 20.5625 43.4647C20.5625 40.4862 21.6973 37.9504 23.9121 35.9245C26.1133 33.9254 28.7656 32.9191 31.8145 32.9191C34.8633 32.9191 37.5156 33.9388 39.7168 35.9245C41.9453 37.9504 43.0664 40.4862 43.0664 43.4647C43.0664 45.1418 43.7227 46.5103 45.0488 47.6776C46.3613 48.8448 48.0703 49.4889 49.8477 49.462C51.6113 49.462 53.1289 48.8851 54.4551 47.691C55.7539 46.5372 56.3691 45.1552 56.3691 43.4647C56.3691 37.0783 54.0176 31.8726 49.1641 27.5524C44.3379 23.259 38.5 21.0855 31.8008 21.0855C25.1016 21.0855 19.2637 23.259 14.4375 27.5524C9.59766 31.8726 7.23242 37.0783 7.23242 43.4647C7.23242 44.7125 7.38281 46.3762 7.68359 48.4155C7.9707 50.4146 8.61328 52.7357 9.57031 55.3117C9.98047 56.318 9.61133 57.0023 9.35156 57.3243C9.13281 57.5792 8.88672 57.8073 8.59961 57.9951L8.51758 58.0488L8.43555 58.089C8.09375 58.2634 7.71094 58.3439 7.32812 58.3439C7.13672 58.3439 6.95898 58.3171 6.76758 58.2769C6.04297 58.1159 5.45508 57.606 5.19531 56.9352L5.18164 56.9083L5.16797 56.8681C4.41602 54.7214 3.82812 52.521 3.39062 50.2939C2.95312 48.0533 2.73438 45.7724 2.73438 43.4781C2.73438 36.0184 5.66016 29.5649 11.416 24.2921C17.1445 19.0461 23.9941 16.3762 31.7734 16.3762C39.7168 16.3762 46.6348 18.9925 52.3359 24.1579C58.0781 29.3502 60.9766 35.8574 60.9766 43.4781C60.9766 46.403 59.8691 48.8985 57.668 50.9244C55.4941 52.9236 52.8555 53.9432 49.8066 53.9432C46.7031 53.9432 44.0098 52.937 41.7812 50.9379C39.5254 48.9119 38.377 46.403 38.377 43.4781C38.377 41.7339 37.748 40.3252 36.4629 39.1713C35.1914 38.0041 33.5098 37.3735 31.7734 37.4003C30.0234 37.3735 28.3281 38.0041 27.043 39.1847C25.7305 40.3386 25.0879 41.7474 25.0879 43.4781C25.0879 48.7912 26.7422 53.2858 29.9961 56.8144C33.3184 60.4235 37.5293 62.9862 42.5059 64.4352L42.5469 64.4486C43.2578 64.6767 43.75 65.0523 44.0098 65.5756C44.4883 66.6221 44.1602 67.8565 43.2305 68.5407C42.9434 68.7285 42.5605 68.8359 42.1777 68.8359ZM23.9668 68.165C23.3379 68.1516 22.7363 67.8699 22.3535 67.3735C19.0449 64.0058 16.4199 60.4101 14.5469 56.6803C12.6328 52.8833 11.6758 48.4289 11.6758 43.4647C11.6758 38.1919 13.6855 33.6839 17.6367 30.0747C21.5605 26.4925 26.332 24.6678 31.8281 24.6678C37.3242 24.6678 42.123 26.479 46.1016 30.0613C50.1211 33.6704 52.1445 38.1785 52.1445 43.4513C52.2129 44.632 51.2832 45.6248 50.0938 45.6919H49.8613C49.2871 45.7053 48.7129 45.5175 48.2617 45.1552C47.7559 44.7259 47.4688 44.1087 47.4961 43.4513C47.4961 39.386 45.9922 36.0586 42.8887 33.3082C39.7441 30.5041 36.1348 29.149 31.8145 29.149C27.4941 29.149 23.9121 30.5041 20.8359 33.3082C17.7871 36.072 16.3105 39.3994 16.3105 43.4647C16.3105 47.8923 17.0898 51.7026 18.6348 54.7751C20.207 57.9146 22.5859 61.1212 25.7168 64.2876C26.4004 64.9718 26.4688 65.6427 26.4141 66.0989C26.332 66.6087 26.0859 67.0783 25.7168 67.4405C25.4023 67.7357 25.0195 67.9504 24.6094 68.0711C24.3906 68.1382 24.1719 68.165 23.9668 68.165ZM49.0957 61.8323C43.832 61.8323 39.1973 60.0881 35.3281 56.6534C31.418 53.1785 29.4492 48.7375 29.4492 43.4647C29.4355 42.9012 29.627 42.3377 29.9961 41.8949C30.8711 40.9558 32.3477 40.8887 33.3047 41.7339L33.4688 41.8949C33.8379 42.3377 34.0293 42.8878 34.0156 43.4647C34.0156 47.5166 35.4922 50.7769 38.5137 53.3931C41.6035 56.0631 45.0625 57.3645 49.0957 57.3645C49.4922 57.3645 49.9844 57.3377 50.5586 57.284C51.1328 57.2303 51.7754 57.1498 52.459 57.0559C52.6094 57.0291 52.7734 57.0157 52.9375 57.0157C53.4297 57.0157 53.9219 57.1767 54.3047 57.4853C54.6602 57.767 54.9336 58.1561 55.084 58.572L55.0977 58.6257L55.1113 58.6794C55.248 59.2026 55.207 59.7527 54.9609 60.2357C54.7969 60.5577 54.3867 61.1078 53.4707 61.3091C52.5137 61.5774 51.5293 61.7518 50.5449 61.8055C49.4922 61.8323 49.2188 61.8323 49.0957 61.8323ZM2.21484 27.4585C1.8457 27.4585 1.47656 27.3645 1.13477 27.2035C0.4375 26.8681 0 26.1704 0 25.4057C0 24.9495 0.109375 24.4933 0.314453 24.0774L0.369141 23.9701L0.4375 23.8762C3.97852 19.0327 8.68164 15.115 14.1367 12.4853C19.6328 9.81536 25.6758 8.44685 31.8008 8.47368C37.9258 8.44685 43.9824 9.78853 49.5059 12.3914C55.002 14.9808 59.7598 18.8583 63.3418 23.7018L63.3828 23.7554L63.4102 23.8091C63.7656 24.386 63.8887 24.9093 63.8066 25.4325C63.7109 25.9155 63.4785 26.3583 63.1094 26.6937C62.6719 27.123 62.084 27.3645 61.4551 27.3511C60.9629 27.3511 60.252 27.1901 59.6094 26.4119L59.582 26.3851L59.5547 26.3583C56.4512 22.1052 52.2949 18.6839 47.4688 16.4298C42.5742 14.1222 37.2148 12.9281 31.7734 12.9415C26.2637 12.9415 21.0273 14.1222 16.2148 16.4567C11.4434 18.7644 7.30078 22.1588 4.15625 26.3583L4.14258 26.3851L4.12891 26.3985C3.70508 26.9084 3.26758 27.2304 2.77539 27.3645C2.61133 27.4182 2.40625 27.445 2.21484 27.4585ZM11.7852 9.57386C11.4434 9.57386 11.1152 9.49336 10.8281 9.31894C10.5273 9.1311 10.2676 8.90302 10.0625 8.60785C9.73438 8.21876 9.57031 7.73576 9.58398 7.23934C9.57031 6.5685 9.91211 5.93791 10.4727 5.56223L10.5273 5.52198L10.582 5.49515C13.8496 3.75097 17.3359 2.40929 20.9453 1.49694C24.4863 0.611434 28.1504 0.141846 31.8145 0.141846C35.5469 0.141846 39.252 0.598017 42.875 1.49694C46.4297 2.38245 49.875 3.65705 53.1562 5.2939C53.8809 5.60249 54.3457 6.17941 54.4414 6.90392C54.5234 7.44059 54.3867 7.99068 54.0859 8.44685C53.8398 8.79568 53.5254 9.09085 53.1426 9.30552C52.8281 9.47994 52.4727 9.57386 52.1035 9.57386C51.7891 9.57386 51.4746 9.50677 51.1738 9.38602L51.1191 9.35919L51.0645 9.33236C48.0703 7.89676 44.9258 6.75633 41.6855 5.93791C38.459 5.11948 35.1367 4.70356 31.8145 4.70356C28.5059 4.70356 25.2246 5.07923 22.0117 5.8574C18.8262 6.62216 15.75 7.78942 12.8652 9.31894L12.7969 9.35919L12.7148 9.38602C12.4141 9.49336 12.0996 9.56044 11.7852 9.57386Z" fill="#207C7E"/>
</svg>
