<svg width="70" height="69" viewBox="0 0 70 69" fill="none" xmlns="http://www.w3.org/2000/svg">
<path d="M22.9336 47.2263C26.0639 51.182 30.3452 53.3506 35 53.3506C39.5811 53.3506 43.9844 51.1236 47.0791 47.2365C47.65 46.5338 48.17 45.7788 48.6341 44.9788C49.4439 43.5995 50.0871 42.1002 50.5461 40.5219C51.3844 37.6236 51.6078 34.5367 51.1978 31.5188C50.7814 28.5245 49.7443 25.6896 48.1742 23.2537C47.8366 22.7259 47.4718 22.2218 47.0817 21.7442C46.0566 20.4647 44.8891 19.3464 43.6096 18.4183C42.3774 17.5452 41.0507 16.8623 39.6637 16.3871C38.7201 16.0633 37.7512 15.846 36.771 15.7383C36.151 15.6522 35.5266 15.6151 34.9022 15.6272C34.8374 15.6272 34.7701 15.6272 34.7116 15.6345C34.173 15.6404 33.7156 15.6725 33.2722 15.7339C31.4772 15.9309 29.7251 16.4821 28.0927 17.3633C26.1377 18.405 24.3843 19.8872 22.9361 21.7223C20.1455 25.1982 18.5976 29.7569 18.6014 34.4882C18.6014 36.9782 19.0258 39.4127 19.863 41.726C20.4626 43.3597 21.1969 44.8064 22.0443 46.0193C22.3327 46.4518 22.6236 46.8449 22.9336 47.2263ZM37.9131 35.9509H32.092C30.953 35.9498 29.861 35.4289 29.0555 34.5027C28.2499 33.5764 27.7968 32.3204 27.7955 31.0103V29.0785C27.7968 27.7683 28.2499 26.5124 29.0555 25.5861C29.861 24.6598 30.953 24.139 32.092 24.1378H33.7296V22.1607C33.7296 21.7731 33.8634 21.4014 34.1017 21.1274C34.3399 20.8534 34.6631 20.6994 35 20.6994C35.3369 20.6994 35.6601 20.8534 35.8983 21.1274C36.1366 21.4014 36.2704 21.7731 36.2704 22.1607V24.1378H37.9131C39.0518 24.1394 40.1436 24.6604 40.9488 25.5866C41.754 26.5128 42.207 27.7686 42.2083 29.0785C42.2083 29.466 42.0745 29.8377 41.8363 30.1118C41.598 30.3858 41.2749 30.5398 40.9379 30.5398C40.601 30.5398 40.2779 30.3858 40.0396 30.1118C39.8014 29.8377 39.6675 29.466 39.6675 29.0785C39.6675 27.965 38.8799 27.0604 37.9131 27.0604H35.033C35.0216 27.0604 35.0114 27.0677 34.9987 27.0677C34.986 27.0677 34.9771 27.0604 34.9644 27.0604H32.0907C31.1227 27.0604 30.335 27.9664 30.335 29.0785V31.0103C30.335 32.1238 31.1227 33.0283 32.0907 33.0283H37.9118C39.0506 33.0299 40.1423 33.5509 40.9475 34.4771C41.7528 35.4033 42.2057 36.6591 42.2071 37.969V39.9008C42.2061 41.2109 41.7532 42.4671 40.948 43.3936C40.1427 44.3201 39.0508 44.8414 37.9118 44.8429H36.2691V46.8376C36.2691 47.2251 36.1353 47.5968 35.897 47.8709C35.6588 48.1449 35.3357 48.2989 34.9987 48.2989C34.6618 48.2989 34.3387 48.1449 34.1004 47.8709C33.8622 47.5968 33.7283 47.2251 33.7283 46.8376V44.8429H32.0907C30.9516 44.8414 29.8596 44.3202 29.0541 43.3937C28.2486 42.4672 27.7955 41.2111 27.7942 39.9008C27.7942 39.5133 27.928 39.1416 28.1663 38.8675C28.4045 38.5935 28.7277 38.4395 29.0646 38.4395C29.4015 38.4395 29.7247 38.5935 29.9629 38.8675C30.2012 39.1416 30.335 39.5133 30.335 39.9008C30.335 41.0143 31.1227 41.9203 32.0907 41.9203H37.9118C38.8799 41.9203 39.6662 41.0143 39.6662 39.9008V37.969C39.6662 36.8555 38.8799 35.9509 37.9131 35.9509Z" fill="#207C7E"/>
<path d="M12.0995 62.9235C12.0995 62.5359 12.2333 62.1642 12.4716 61.8902C12.7098 61.6161 13.0329 61.4622 13.3699 61.4622H56.4574V49.6856H48.563C48.3889 49.8902 48.1984 50.0714 48.018 50.2672C47.7956 50.5098 47.5771 50.7567 47.3459 50.9847C47.0918 51.236 46.825 51.4684 46.5595 51.7037C46.3156 51.9199 46.0768 52.1406 45.8252 52.3422C45.5495 52.5629 45.2624 52.7616 44.9779 52.9648C44.72 53.1489 44.4672 53.3403 44.2016 53.5098C43.9018 53.7012 43.5918 53.8678 43.2844 54.0403C43.0189 54.1893 42.7597 54.3471 42.4878 54.4816C42.1613 54.6438 41.8247 54.7768 41.4906 54.917C41.225 55.0281 40.9646 55.1538 40.6953 55.2517C40.3332 55.3832 39.9635 55.4826 39.5938 55.5892C39.3423 55.6623 39.0958 55.75 38.8417 55.8114C38.425 55.9107 38.0007 55.9736 37.5777 56.0422C37.363 56.0759 37.1521 56.1285 36.9374 56.1548C36.2958 56.2307 35.6492 56.2717 35 56.2717C34.3508 56.2717 33.7016 56.2307 33.0601 56.1548C32.8428 56.1285 32.6307 56.0759 32.416 56.0422C31.9942 55.975 31.5711 55.9122 31.1557 55.8128C30.8991 55.7514 30.6501 55.6623 30.3973 55.5892C30.0301 55.4826 29.6617 55.3847 29.3009 55.2531C29.0341 55.1567 28.7775 55.0325 28.5145 54.9229C28.1766 54.7811 27.8374 54.6467 27.5083 54.483C27.2441 54.3515 26.99 54.1966 26.7321 54.052C26.4171 53.8751 26.1007 53.7056 25.7958 53.5084C25.5405 53.3447 25.2966 53.1591 25.0488 52.9823C24.7541 52.7719 24.4581 52.5658 24.1735 52.3364C23.9334 52.1435 23.706 51.9316 23.4735 51.7256C23.1978 51.4801 22.9209 51.2375 22.6566 50.9745C22.4356 50.7538 22.226 50.5171 22.0125 50.2833C21.8283 50.0816 21.6339 49.8975 21.4561 49.6871H13.3699C13.0329 49.6871 12.7098 49.5331 12.4716 49.2591C12.2333 48.985 12.0995 48.6133 12.0995 48.2258V42.3265L0 55.5819L12.0995 68.8359V62.9235ZM57.9005 6.05571C57.9005 6.44327 57.7667 6.81495 57.5285 7.089C57.2902 7.36305 56.9671 7.517 56.6301 7.517H13.5427V19.2804H21.4446C21.6149 19.0773 21.8016 18.8946 21.9782 18.7003C22.1624 18.4972 22.3441 18.2882 22.5347 18.0939C22.8002 17.8235 23.0784 17.5736 23.3566 17.3223C23.5459 17.1513 23.7301 16.9716 23.9258 16.8094C24.2446 16.5434 24.5775 16.3023 24.9116 16.0597C25.0831 15.9355 25.2457 15.7996 25.4211 15.6813C25.9368 15.3335 26.4679 15.0091 27.0167 14.7153C28.6043 13.8589 30.291 13.2703 32.0247 12.9676C32.3499 12.9106 32.6878 12.8537 33.0283 12.8244C33.5123 12.7572 34.0726 12.7163 34.5922 12.7163C35.413 12.6827 36.2348 12.7213 37.0505 12.8317C38.1252 12.9472 39.261 13.2014 40.3853 13.5828C41.9746 14.125 43.5131 14.917 44.9588 15.9384C45.5813 16.3944 46.1657 16.8854 46.7247 17.3968L46.9445 17.5926C47.4704 18.0866 47.9621 18.6068 48.4283 19.1475C48.4715 19.1971 48.5223 19.2395 48.5642 19.2907H56.6301C56.9671 19.2907 57.2902 19.4446 57.5285 19.7187C57.7667 19.9927 57.9005 20.3644 57.9005 20.752V26.6512L70 13.3973L57.9005 0.141846V6.05571Z" fill="#207C7E"/>
</svg>
