<svg width="64" height="64" viewBox="0 0 64 64" fill="none" xmlns="http://www.w3.org/2000/svg">
<path fill-rule="evenodd" clip-rule="evenodd" d="M0.590488 51.7013H29.3497C29.7225 53.5375 30.3905 55.3037 31.3286 56.934H0.590488C0.43397 56.9337 0.283945 56.8726 0.173269 56.764C0.0625939 56.6554 0.000289113 56.5082 0 56.3546V52.2809C0.000252979 52.1273 0.0625418 51.9801 0.173221 51.8714C0.2839 51.7628 0.433946 51.7016 0.590488 51.7013ZM5.39383 23.4423V49.5546H11.9752V29.0336C11.9752 28.3953 12.5058 27.8746 13.1563 27.8746H23.9453C24.5958 27.8746 25.1264 28.3953 25.1264 29.0336V49.5546H29.0504C29.0163 49.1069 28.9992 48.658 28.9993 48.2089C28.9993 44.0614 30.4463 40.2455 32.8721 37.2211C32.3963 37.0713 32.0504 36.6325 32.0504 36.1171V29.0336C32.0504 28.3953 32.581 27.8746 33.2315 27.8746H45.9365C46.587 27.8746 47.1177 28.3953 47.1177 29.0336V30.4287C49.248 30.4287 51.2925 30.7895 53.1911 31.4523V23.4423C52.7107 23.5243 52.2166 23.5671 51.7122 23.5671C48.6016 23.5671 45.7555 21.9207 44.239 19.2731C42.7224 21.9207 39.8765 23.5671 36.7657 23.5671C33.6551 23.5671 30.8089 21.9207 29.2925 19.2731C27.7762 21.9207 24.93 23.5671 21.8194 23.5671C18.7087 23.5671 15.8627 21.9207 14.3462 19.2731C12.8297 21.9207 9.98348 23.5671 6.87285 23.5671C6.36836 23.5671 5.87426 23.5243 5.39383 23.4423ZM47.1177 32.5753C38.3193 32.5753 31.1868 39.5747 31.1868 48.2089C31.1868 56.8431 38.3193 63.8426 47.1177 63.8426C55.9161 63.8426 63.0485 56.8432 63.0485 48.2089C63.0485 39.5747 55.9161 32.5753 47.1177 32.5753ZM39.808 41.7246H37.6518C37.3617 41.7246 37.0835 41.6115 36.8784 41.4102C36.6733 41.2089 36.558 40.9359 36.558 40.6513C36.558 40.3666 36.6733 40.0936 36.8784 39.8923C37.0835 39.691 37.3617 39.5779 37.6518 39.5779L40.6515 39.5823C40.8936 39.5824 41.1287 39.6616 41.3198 39.8073C41.5108 39.9531 41.647 40.1571 41.7069 40.3872L42.2391 42.4207H56.5838C57.3394 42.4207 57.8596 43.1534 57.6185 43.8427L56.0118 50.385C55.6716 51.7706 54.4429 52.7284 52.9889 52.7284H43.2991C43.1371 52.7284 43.0006 52.8623 43.0006 53.0213C43.0006 53.1801 43.1372 53.314 43.2991 53.314H55.2178C55.5079 53.314 55.7861 53.4271 55.9912 53.6284C56.1964 53.8297 56.3116 54.1027 56.3116 54.3874C56.3116 54.672 56.1964 54.9451 55.9912 55.1464C55.7861 55.3476 55.5079 55.4607 55.2178 55.4607H54.6479C54.8037 55.607 54.9277 55.7828 55.0123 55.9775C55.0969 56.1721 55.1404 56.3816 55.1402 56.5932C55.1402 57.4598 54.4243 58.1622 53.5414 58.1622C52.6583 58.1622 51.9426 57.4597 51.9426 56.5932C51.9423 56.3816 51.9858 56.1721 52.0704 55.9775C52.1551 55.7828 52.2791 55.607 52.4349 55.4607H45.2662C45.4221 55.607 45.546 55.7828 45.6307 55.9775C45.7153 56.1721 45.7588 56.3816 45.7585 56.5932C45.7585 57.4598 45.0427 58.1622 44.1597 58.1622C43.2768 58.1622 42.561 57.4597 42.561 56.5932C42.5607 56.3789 42.6053 56.1668 42.6921 55.9701C42.7788 55.7734 42.9058 55.5963 43.0652 55.4497C41.8048 55.3334 40.813 54.2877 40.813 53.0211C40.813 52.0932 41.3517 51.2493 42.1929 50.8372L39.808 41.7246ZM1.19834 14.0867H13.5058L17.2658 0.0856934H8.72279C8.65662 0.0856934 8.63229 0.0944144 8.60125 0.153985L1.19834 14.0867ZM15.7627 14.0867L19.5226 0.0856934H28.1987V14.0867H15.7627ZM30.3862 14.0867H42.8222L39.0622 0.0856934H30.3862V14.0867ZM49.8621 0.0856934C49.9658 0.0856934 49.9827 0.152375 50.0253 0.232473L57.3865 14.0867H45.079L41.3191 0.0856934H49.8621ZM57.9981 16.2334C57.4714 19.2262 54.8145 21.4204 51.7121 21.4204C48.6095 21.4204 45.9529 19.2262 45.4262 16.2334H57.9981ZM43.0516 16.2334C42.5249 19.2264 39.8683 21.4204 36.7657 21.4204C33.6633 21.4204 31.0066 19.2262 30.4798 16.2334H43.0516ZM28.1051 16.2334C27.5784 19.2264 24.9216 21.4204 21.8192 21.4204C18.7167 21.4204 16.0602 19.2264 15.5333 16.2334H28.1051ZM13.1588 16.2334C12.632 19.2264 9.97527 21.4204 6.87271 21.4204C3.77029 21.4204 1.11344 19.2262 0.58666 16.2334H13.1588Z" fill="#207C7E"/>
</svg>
