<svg width="70" height="69" viewBox="0 0 70 69" fill="none" xmlns="http://www.w3.org/2000/svg">
<path d="M37.1965 38.6569C48.0171 38.6569 56.8202 30.018 56.8202 19.3994C56.8202 8.78079 48.0171 0.141846 37.1965 0.141846C26.3759 0.141846 17.5729 8.78079 17.5729 19.3994C17.5729 30.018 26.3761 38.6569 37.1965 38.6569ZM35.1457 11.005V10.7769C35.1457 9.6655 36.0639 8.76442 37.1965 8.76442C38.3291 8.76442 39.2473 9.6655 39.2473 10.7769V10.92H39.3932C40.5258 10.92 41.444 11.821 41.444 12.9325C41.444 14.0439 40.5258 14.945 39.3932 14.945H36.0981C35.4121 14.945 34.854 15.4927 34.854 16.1661C34.854 16.8393 35.4121 17.387 36.0981 17.387H38.2949C41.2427 17.387 43.6408 19.7403 43.6408 22.6331C43.6408 25.2066 41.7421 27.3517 39.2474 27.794V28.0221C39.2474 29.1335 38.3292 30.0346 37.1967 30.0346C36.0641 30.0346 35.1459 29.1335 35.1459 28.0221V27.8791H35C33.8674 27.8791 32.9492 26.978 32.9492 25.8666C32.9492 24.7551 33.8674 23.854 35 23.854H38.2949C38.9811 23.854 39.5392 23.3064 39.5392 22.6331C39.5392 21.9597 38.9811 21.412 38.2949 21.412H36.0984C33.1507 21.412 30.7527 19.0587 30.7527 16.1661C30.7527 13.5925 32.6513 11.4474 35.1457 11.005ZM64.4726 12.5771L68.8659 10.4214C69.879 9.92444 70.2896 8.71559 69.783 7.7214C69.2765 6.72722 68.0449 6.32431 67.0317 6.82127L62.6384 8.97694C61.6253 9.4739 61.2147 10.6828 61.7213 11.6769C62.2297 12.6749 63.4635 13.0719 64.4726 12.5771ZM68.8659 28.3775L64.4726 26.2218C63.4601 25.7253 62.2278 26.1278 61.7213 27.122C61.2147 28.1161 61.6253 29.325 62.6384 29.822L67.0317 31.9776C68.0434 32.4738 69.2758 32.0729 69.783 31.0775C70.2896 30.0833 69.879 28.8745 68.8659 28.3775ZM11.7548 8.97694L7.36148 6.82113C6.34826 6.32417 5.1167 6.72708 4.61016 7.72127C4.10361 8.71545 4.51418 9.92431 5.52727 10.4213L9.92059 12.5769C10.9297 13.0719 12.1635 12.6749 12.6719 11.6768C13.1785 10.6826 12.7679 9.4739 11.7548 8.97694ZM9.92059 26.2218L5.52727 28.3775C4.51418 28.8745 4.10361 30.0833 4.61016 31.0775C5.11738 32.0729 6.34977 32.4738 7.36148 31.9776L11.7548 29.822C12.7679 29.325 13.1785 28.1161 12.6719 27.122C12.1654 26.1278 10.9331 25.7253 9.92059 26.2218ZM55.4861 44.3163L45.5674 54.0502C44.3488 55.2448 42.7313 55.9021 41.0119 55.9021H33.5692C32.465 55.9021 31.5148 55.0693 31.4628 53.9868C31.4073 52.8311 32.3457 51.877 33.5113 51.877H40.1525C42.5789 51.877 44.5457 49.9468 44.5457 47.5658C44.5457 45.1849 42.5789 43.2546 40.1525 43.2546H26.7771C20.5557 43.2546 18.5845 48.3975 18.2577 49.7215H15.0845V64.5247H43.3639C45.914 64.5247 48.3122 63.5498 50.1169 61.7794L65.0059 47.1676C65.1973 46.98 65.3489 46.757 65.4521 46.5116C65.5552 46.2661 65.6078 46.0031 65.6069 45.7376C65.606 45.4721 65.5515 45.2095 65.4466 44.9647C65.3418 44.72 65.1886 44.4981 64.996 44.3117C62.2695 41.6428 58.0375 41.8124 55.4861 44.3163ZM8.93238 45.4101H2.05078C0.918203 45.4101 0 46.3112 0 47.4227V66.8234C0 67.9348 0.918203 68.8359 2.05078 68.8359H8.93225C10.0648 68.8359 10.983 67.9348 10.983 66.8234V47.4227C10.9832 46.3112 10.065 45.4101 8.93238 45.4101Z" fill="#207C7E"/>
</svg>
