<svg width="40" height="40" viewBox="0 0 40 40" fill="none" xmlns="http://www.w3.org/2000/svg">
<path d="M39.3136 16.025C39.688 16.025 39.9376 15.7746 39.9376 15.3991C39.9376 15.0235 39.688 14.7731 39.3136 14.7731H35.195V11.3928H39.3136C39.688 11.3928 39.9376 11.1424 39.9376 10.7668C39.9376 10.3912 39.688 10.1408 39.3136 10.1408H35.195V8.82629C35.195 6.63537 33.3853 4.82003 31.1388 4.82003H29.8284V0.625978C29.8284 0.250391 29.5788 0 29.2044 0C28.83 0 28.5803 0.250391 28.5803 0.625978V4.75743H25.2106V0.625978C25.2106 0.250391 24.961 0 24.5866 0C24.2122 0 23.9626 0.250391 23.9626 0.625978V4.75743H20.5928V0.625978C20.5928 0.250391 20.3432 0 19.9688 0C19.5944 0 19.3448 0.250391 19.3448 0.625978V4.75743H15.975V0.625978C15.975 0.250391 15.7254 0 15.351 0C14.9766 0 14.727 0.250391 14.727 0.625978V4.75743H11.3573V0.625978C11.3573 0.250391 11.1076 0 10.7332 0C10.3588 0 10.1092 0.250391 10.1092 0.625978V4.75743H8.79875C6.61467 4.75743 4.80499 6.57277 4.80499 8.76369V10.0782H0.624025C0.24961 10.0782 0 10.3286 0 10.7042C0 11.0798 0.24961 11.3302 0.624025 11.3302H4.74259V12.2066H9.54758L13.6661 8.88889H20.156C20.468 7.76213 21.4665 6.88576 22.7145 6.88576C24.1498 6.88576 25.3354 8.07512 25.3354 9.51487C25.3354 10.9546 24.1498 12.144 22.7145 12.144C21.4665 12.144 20.468 11.2676 20.156 10.1408H14.103L9.9844 13.4585H4.74259V14.7731H0.624025C0.24961 14.7731 0 15.0235 0 15.3991C0 15.7746 0.24961 16.025 0.624025 16.025H4.74259V16.9014H10.858L12.6053 18.6541H15.8502C16.2246 17.6526 17.1607 16.9014 18.2839 16.9014C19.7192 16.9014 20.9048 18.0908 20.9048 19.5305C20.9048 20.9703 19.7192 22.1596 18.2839 22.1596C16.9735 22.1596 15.9126 21.1581 15.7254 19.9061H12.1061L10.3588 18.1534H4.74259V19.4053H0.624025C0.24961 19.4053 0 19.6557 0 20.0313C0 20.4069 0.24961 20.6573 0.624025 20.6573H4.74259V24.0376H0.624025C0.24961 24.0376 0 24.2879 0 24.6635C0 25.0391 0.24961 25.2895 0.624025 25.2895H4.74259V28.6698H0.624025C0.24961 28.6698 0 28.9202 0 29.2958C0 29.6714 0.24961 29.9218 0.624025 29.9218H4.74259V31.2363C4.74259 33.4272 6.55226 35.2426 8.73635 35.2426H10.0468V39.374C10.0468 39.7496 10.2964 40 10.6708 40C11.0452 40 11.2949 39.7496 11.2949 39.374V35.2426H14.6646V39.374C14.6646 39.7496 14.9142 40 15.2886 40C15.663 40 15.9126 39.7496 15.9126 39.374V35.2426H19.2824V39.374C19.2824 39.7496 19.532 40 19.9064 40C20.2808 40 20.5304 39.7496 20.5304 39.374V35.2426H23.9002V39.374C23.9002 39.7496 24.1498 40 24.5242 40C24.8986 40 25.1482 39.7496 25.1482 39.374V35.2426H28.5179V39.374C28.5179 39.7496 28.7676 40 29.142 40C29.5164 40 29.766 39.7496 29.766 39.374V35.2426H31.0764C33.3229 35.2426 35.1326 33.4272 35.1326 31.2363V29.9218H39.2512C39.6256 29.9218 39.8752 29.6714 39.8752 29.2958C39.8752 28.9202 39.6256 28.6698 39.2512 28.6698H35.1326V28.6072H27.6443L25.9594 30.2973H20.0312L18.0967 28.3568H16.8487C16.5367 29.4836 15.5382 30.3599 14.2902 30.3599C12.8549 30.3599 11.6693 29.1706 11.6693 27.7308C11.6693 26.2911 12.8549 25.1017 14.2902 25.1017C15.5382 25.1017 16.5367 25.9781 16.8487 27.1048H18.6583L20.5928 29.0454H25.4602L27.1451 27.3552H35.195V25.2895H39.3136C39.688 25.2895 39.9376 25.0391 39.9376 24.6635C39.9376 24.2879 39.688 24.0376 39.3136 24.0376H35.195V22.5978H27.7067L25.897 24.3505C26.1466 24.7261 26.2715 25.2269 26.2715 25.6651C26.2715 27.1048 25.0858 28.2942 23.6505 28.2942C22.2153 28.2942 21.0296 27.1048 21.0296 25.6651C21.0296 24.2254 22.2153 23.036 23.6505 23.036C24.1498 23.036 24.5866 23.1612 25.0234 23.4116L27.2699 21.3458H35.2574V20.6573H39.376C39.7504 20.6573 40 20.4069 40 20.0313C40 19.6557 39.7504 19.4053 39.376 19.4053H35.2574V16.025H39.3136ZM13.0421 31.5493C13.4165 31.5493 13.6661 31.7997 13.6661 32.1753C13.6661 32.5509 13.4165 32.8013 13.0421 32.8013H10.4836C8.73635 32.8013 7.23869 31.3615 7.23869 29.5462V21.9718C7.23869 21.5962 7.4883 21.3458 7.86272 21.3458C8.23713 21.3458 8.48674 21.5962 8.48674 21.9718V29.5462C8.48674 30.6103 9.36037 31.5493 10.4836 31.5493H13.0421ZM32.6989 16.2128C32.6989 16.5884 32.4493 16.8388 32.0749 16.8388C31.7005 16.8388 31.4509 16.5884 31.4509 16.2128V10.4538C31.4509 9.38967 30.5772 8.4507 29.454 8.4507H26.8955C26.5211 8.4507 26.2715 8.20031 26.2715 7.82473C26.2715 7.44914 26.5211 7.19875 26.8955 7.19875H29.454C31.2013 7.19875 32.6989 8.6385 32.6989 10.4538V16.2128Z" fill="white"/>
</svg>
