<svg width="40" height="40" viewBox="0 0 40 40" fill="none" xmlns="http://www.w3.org/2000/svg">
<path d="M0.175547 19.2857H1.42908C1.61852 19.2857 1.80019 19.361 1.93415 19.4949C2.0681 19.6289 2.14335 19.8106 2.14335 20C2.14053 23.0921 2.94247 26.1317 4.47033 28.8199C5.99819 31.5081 8.19935 33.7524 10.8574 35.3321C11.0781 34.4426 11.5716 33.6446 12.2688 33.0499L12.4031 32.9335C10.1444 31.6151 8.27171 29.7264 6.97253 27.4565C5.67336 25.1867 4.99329 22.6154 5.00041 20C5.00041 19.8106 5.07567 19.6289 5.20962 19.4949C5.34357 19.361 5.52524 19.2857 5.71468 19.2857H6.96822C7.00179 19.2873 7.03503 19.2784 7.0634 19.2604C7.09177 19.2424 7.1139 19.216 7.12678 19.185C7.14147 19.1562 7.14682 19.1235 7.14209 19.0915C7.13735 19.0595 7.12276 19.0298 7.10036 19.0064L3.70473 15.06C3.68818 15.0412 3.6678 15.0261 3.64495 15.0158C3.6221 15.0054 3.59731 15.0001 3.57224 15.0001C3.54716 15.0001 3.52238 15.0054 3.49953 15.0158C3.47668 15.0261 3.4563 15.0412 3.43974 15.06L0.0434074 19.0064C0.0209992 19.0298 0.00641408 19.0595 0.00167798 19.0915C-0.00305811 19.1235 0.00229006 19.1562 0.0169796 19.185C0.0298604 19.216 0.0519923 19.2424 0.0803643 19.2604C0.108736 19.2784 0.141971 19.2873 0.175547 19.2857ZM6.95607 12.2622L7.0725 12.3979C8.38934 10.1394 10.277 8.26701 12.546 6.96854C14.8151 5.67007 17.3857 4.99121 20 5.00008C20.1894 5.00008 20.3711 5.07533 20.5051 5.20928C20.639 5.34324 20.7143 5.52492 20.7143 5.71436V6.96792C20.7127 7.0015 20.7216 7.03474 20.7396 7.06311C20.7576 7.09148 20.7839 7.11361 20.815 7.12649C20.8438 7.14108 20.8765 7.14637 20.9085 7.14164C20.9404 7.1369 20.9702 7.12238 20.9935 7.10007L24.9391 3.70437C24.9581 3.68781 24.9733 3.66739 24.9837 3.64447C24.9941 3.62156 24.9995 3.59668 24.9995 3.57151C24.9995 3.54634 24.9941 3.52147 24.9837 3.49855C24.9733 3.47564 24.9581 3.45522 24.9391 3.43866L20.9935 0.0429589C20.9701 0.020826 20.9403 0.00642655 20.9084 0.00170108C20.8765 -0.00302439 20.8439 0.00215128 20.815 0.0165305C20.7839 0.0294115 20.7576 0.0515439 20.7396 0.0799166C20.7216 0.108289 20.7127 0.141525 20.7143 0.175101V1.42867C20.7143 1.61811 20.639 1.79979 20.5051 1.93374C20.3711 2.06769 20.1894 2.14295 20 2.14295C16.908 2.13991 13.8684 2.94179 11.1802 4.4697C8.49198 5.99761 6.24778 8.19894 4.66828 10.8572C5.55747 11.0787 6.35605 11.5706 6.95393 12.265L6.95607 12.2622ZM19.185 32.8735C19.1626 32.8632 19.1383 32.8576 19.1136 32.8571C19.0745 32.858 19.0372 32.8732 19.0086 32.8999L15.0616 36.2956C15.0427 36.3123 15.0276 36.3327 15.0173 36.3556C15.0069 36.3785 15.0016 36.4034 15.0016 36.4285C15.0016 36.4536 15.0069 36.4785 15.0173 36.5014C15.0276 36.5243 15.0427 36.5447 15.0616 36.5613L19.0079 39.957C19.0314 39.9792 19.0611 39.9936 19.093 39.9983C19.1249 40.003 19.1576 39.9978 19.1865 39.9835C19.2172 39.9704 19.2432 39.9481 19.261 39.9198C19.2788 39.8914 19.2874 39.8583 19.2857 39.8249V38.5713C19.2857 38.3819 19.361 38.2002 19.4949 38.0663C19.6289 37.9323 19.8106 37.857 20 37.857C23.0921 37.86 26.1318 37.0581 28.8201 35.5302C31.5084 34.0023 33.7527 31.801 35.3324 29.1428C34.4433 28.9176 33.6452 28.4237 33.0468 27.7285L32.9361 27.6007C31.617 29.8592 29.7277 31.7314 27.4574 33.03C25.1871 34.3286 22.6154 35.0079 20 34.9999C19.8106 34.9999 19.6289 34.9247 19.4949 34.7907C19.361 34.6568 19.2857 34.4751 19.2857 34.2856V33.0321C19.2873 32.9985 19.2784 32.9653 19.2604 32.9369C19.2424 32.9085 19.2161 32.8864 19.185 32.8735ZM34.9996 20C34.9996 20.1894 34.9243 20.3711 34.7904 20.5051C34.6564 20.639 34.4748 20.7143 34.2853 20.7143H33.0318C32.9982 20.7127 32.965 20.7216 32.9366 20.7396C32.9082 20.7576 32.8861 20.784 32.8732 20.815C32.8585 20.8438 32.8532 20.8765 32.8579 20.9085C32.8626 20.9405 32.8772 20.9702 32.8996 20.9936L36.2953 24.9393C36.3089 24.9622 36.3284 24.9812 36.3516 24.9944C36.3748 25.0076 36.4011 25.0145 36.4278 25.0145C36.4545 25.0145 36.4807 25.0076 36.5039 24.9944C36.5272 24.9812 36.5466 24.9622 36.5603 24.9393L39.9566 20.9929C39.979 20.9695 39.9936 20.9398 39.9983 20.9078C40.0031 20.8758 39.9977 20.8431 39.983 20.8143C39.97 20.7834 39.9478 20.7572 39.9195 20.7393C39.8911 20.7214 39.8579 20.7127 39.8245 20.7143H38.5709C38.3815 20.7143 38.1998 20.639 38.0659 20.5051C37.9319 20.3711 37.8566 20.1894 37.8566 20C37.8597 16.9078 37.0579 13.868 35.53 11.1796C34.0022 8.49125 31.8008 6.24687 29.1426 4.66722C28.9177 5.55652 28.4238 6.35474 27.7284 6.95292L27.5991 7.06435C29.8577 8.38324 31.7301 10.2724 33.0289 12.5426C34.3277 14.8129 35.0073 17.3845 34.9996 20Z" fill="white"/>
</svg>
