<svg width="40" height="44" viewBox="0 0 40 44" fill="none" xmlns="http://www.w3.org/2000/svg">
<path d="M19.4288 34.7846C19.4288 34.4757 19.6816 34.2228 19.9906 34.2228C20.2996 34.2228 20.5524 34.4757 20.5524 34.7846V37.1536C21.339 37.1536 21.9663 37.0599 22.5562 37.6404C22.8558 37.9401 23.0431 38.3614 23.0431 38.8202V41.5918C23.0431 42.5094 22.294 43.2584 21.3764 43.2584H18.6049C17.6873 43.2584 16.9382 42.5094 16.9382 41.5918V38.8202C16.9382 37.9026 17.6873 37.1536 18.6049 37.1536H19.4288V34.7846ZM20.5524 8.39888V11.1423C20.5524 11.4513 20.2996 11.7041 19.9906 11.7041C19.6816 11.7041 19.4288 11.4513 19.4288 11.1423V8.39888H17.9682C16.7697 8.39888 15.7865 7.41573 15.7865 6.21723V2.18165C15.7865 0.983146 16.7697 0 17.9682 0H22.0131C23.2116 0 24.1948 0.983146 24.1948 2.18165V6.21723C24.1948 7.41573 23.2116 8.39888 22.0131 8.39888H20.5524ZM20.9457 13.764H19.0356V15.1404C19.0449 15.4213 18.8577 15.6742 18.5768 15.721C18.0712 15.8146 17.5749 15.9644 17.1161 16.161C16.6573 16.3483 16.2172 16.5918 15.7959 16.8727C15.5712 17.0412 15.2528 17.0225 15.0562 16.8258L14.0637 15.824L12.7154 17.1629L13.7172 18.1648C13.9045 18.3521 13.9419 18.6517 13.7828 18.8764C13.4925 19.2978 13.2491 19.7472 13.0524 20.2247C12.8652 20.6742 12.7154 21.1517 12.6217 21.6573C12.5936 21.9382 12.3502 22.1536 12.0599 22.1536H10.6461V24.0543H12.0599C12.3221 24.0543 12.5562 24.2416 12.6124 24.5131C12.706 25.0187 12.8558 25.515 13.0524 25.9738C13.2397 26.4326 13.4831 26.8727 13.764 27.294C13.9326 27.5187 13.9139 27.8371 13.7172 28.0337L12.7154 29.0262L14.0637 30.3745L15.0562 29.382C15.2434 29.1948 15.5431 29.1573 15.7678 29.3165C16.1891 29.6067 16.6386 29.8502 17.1161 30.0468C17.5655 30.2341 18.0431 30.3839 18.5487 30.4775C18.8296 30.5056 19.0449 30.7491 19.0449 31.0393V32.4532H20.9457V31.0393C20.9457 30.7772 21.133 30.5431 21.4045 30.4869C21.9101 30.3933 22.4064 30.2434 22.8652 30.0468C23.324 29.8596 23.764 29.6161 24.1854 29.3352C24.4101 29.1667 24.7285 29.1854 24.9251 29.382L25.927 30.3745L27.2659 29.0262L26.264 28.0243C26.0768 27.8371 26.0393 27.5375 26.1985 27.3127C26.779 26.47 27.1723 25.515 27.3596 24.5037C27.4064 24.2416 27.6311 24.0449 27.912 24.0449H29.3258V22.1442H27.912C27.6498 22.1442 27.4157 21.9569 27.3596 21.6854C27.2659 21.1798 27.1161 20.6835 26.9195 20.2247C26.7322 19.7659 26.4888 19.3258 26.2079 18.9045C26.0393 18.6798 26.0581 18.3614 26.2547 18.1648L27.2472 17.1629L25.9176 15.824L24.9157 16.8165C24.7285 17.0037 24.4288 17.0412 24.2041 16.882C23.7828 16.5918 23.3333 16.3483 22.8558 16.1517C22.4064 15.9644 21.9288 15.8146 21.4232 15.721C21.1423 15.6929 20.927 15.4494 20.927 15.1592V13.764H20.9457ZM23.324 19.7659C21.4794 17.9213 18.4925 17.9213 16.6573 19.7659C14.8221 21.6105 14.8127 24.5974 16.6573 26.4326C18.5019 28.2772 21.4888 28.2772 23.324 26.4326C25.1685 24.588 25.1685 21.6011 23.324 19.7659ZM19.9906 17.2566C23.2116 17.2566 25.8333 19.8689 25.8333 23.0993C25.8333 26.3296 23.221 28.9419 19.9906 28.9419C16.7697 28.9419 14.1479 26.3296 14.1479 23.0993C14.1479 19.8689 16.7697 17.2566 19.9906 17.2566ZM6.10487 11.3858H8.82022C8.9794 11.3858 9.11985 11.4513 9.22285 11.5543L12.0412 14.3727C12.2659 14.5974 12.2659 14.9532 12.0412 15.1685C11.8258 15.3839 11.47 15.3839 11.2453 15.1685L8.58614 12.5094H6.10487C6.10487 13.2959 6.1985 13.9232 5.61798 14.5131C5.31835 14.8127 4.897 15 4.4382 15H1.66667C0.749064 15 0 14.2509 0 13.3333V10.5618C0 9.64419 0.749064 8.89513 1.66667 8.89513H4.4382C5.35581 8.89513 6.10487 9.64419 6.10487 10.5618V11.3858ZM33.6142 12.5187H31.4607L28.8109 15.1685C28.5955 15.3839 28.2397 15.3839 28.015 15.1685C27.7903 14.9438 27.7903 14.588 28.015 14.3727L30.8333 11.5543C30.9363 11.4513 31.0768 11.3858 31.236 11.3858H33.6236V10.4869C33.6236 9.5412 34.3914 8.76404 35.3558 8.76404H38.2678C39.2228 8.76404 40 9.5412 40 10.4963V13.4082C40 14.3539 39.2322 15.1311 38.2678 15.1311H35.3464C34.4007 15.1311 33.6236 14.3633 33.6236 13.3989V12.5187H33.6142ZM6.10487 33.6798H8.58614L11.2453 31.0206C11.47 30.8052 11.8258 30.8052 12.0412 31.0206C12.2659 31.2453 12.2659 31.6011 12.0412 31.8165L9.23221 34.6255C9.12921 34.7285 8.98876 34.794 8.82959 34.794H6.11423C6.11423 35.5805 6.20787 36.2079 5.62734 36.7978C5.32772 37.0974 4.90637 37.2846 4.44757 37.2846H1.66667C0.749064 37.2846 0 36.5356 0 35.618V32.8464C0 31.9288 0.749064 31.1798 1.66667 31.1798H4.4382C5.35581 31.1798 6.10487 31.9288 6.10487 32.8464V33.6798ZM33.6142 34.8034H31.2266C31.0674 34.8034 30.927 34.7378 30.824 34.6348L28.0056 31.8258C27.7809 31.6011 27.7809 31.2453 28.0056 31.03C28.2303 30.8146 28.5861 30.8146 28.8015 31.03L31.4607 33.6891H33.6142V32.7903C33.6142 31.8352 34.3914 31.0581 35.3371 31.0581H38.2491C39.2041 31.0581 39.9813 31.8352 39.9813 32.7809V35.6929C39.9813 36.6386 39.2041 37.4251 38.2491 37.4251H35.3464C34.3914 37.4251 33.6142 36.6479 33.6142 35.7022V34.8034Z" fill="white"/>
</svg>
