<svg width="43" height="33" viewBox="0 0 43 33" fill="none" xmlns="http://www.w3.org/2000/svg">
<path d="M42.196 28.087C42.1759 28.0593 42.151 28.0371 42.123 28.0218C42.095 28.0065 42.0646 27.9986 42.0338 27.9985H0.214557C0.183679 27.9984 0.153158 28.0063 0.125083 28.0216C0.0970079 28.0368 0.0720427 28.0591 0.0518965 28.0869C0.0317503 28.1147 0.0168988 28.1473 0.00835898 28.1825C-0.000180854 28.2177 -0.00220738 28.2547 0.00241814 28.2909C0.00849166 28.3373 0.63927 32.9333 5.53496 32.9333H36.7134C41.6086 32.9333 42.2394 28.3373 42.2459 28.2909C42.2502 28.2547 42.248 28.2178 42.2394 28.1826C42.2308 28.1475 42.216 28.1149 42.196 28.087ZM24.2692 31.3237H17.9787V29.607H24.2692V31.3237ZM4.55842 26.2118H37.6895C37.9196 26.2118 38.1403 26.1033 38.303 25.9101C38.4657 25.717 38.5571 25.4551 38.5571 25.182V1.02981C38.5571 0.756688 38.4657 0.494752 38.303 0.301625C38.1403 0.108498 37.9196 0 37.6895 0H4.55842C4.32831 0 4.10762 0.108498 3.94491 0.301625C3.78219 0.494752 3.69078 0.756688 3.69078 1.02981V25.182C3.69078 25.4551 3.78219 25.717 3.94491 25.9101C4.10762 26.1033 4.32831 26.2118 4.55842 26.2118ZM6.72754 3.60434H35.5203V22.6074H6.72754V3.60434Z" fill="white"/>
</svg>
