<svg width="40" height="40" viewBox="0 0 40 40" fill="none" xmlns="http://www.w3.org/2000/svg">
<path d="M34.1421 5.85789C30.3646 2.08031 25.3422 0 20 0C14.6578 0 9.63531 2.08031 5.85789 5.85781C2.08031 9.63531 0 14.6578 0 20C0 25.3422 2.08031 30.3646 5.85789 34.1421C9.63531 37.9196 14.6578 39.9999 20 39.9999C25.3423 39.9999 30.3646 37.9196 34.1422 34.142C37.9196 30.3646 40 25.3421 40 19.9999C40 14.6577 37.9196 9.63531 34.1421 5.85789ZM7.51688 7.51688C9.27555 5.7582 11.3402 4.4168 13.5905 3.54125C12.9911 4.28953 12.4302 5.14961 11.9163 6.11695C11.3193 7.24039 10.8042 8.47422 10.3752 9.79211C8.88914 9.54547 7.51219 9.24219 6.28203 8.88625C6.66998 8.409 7.08214 7.95194 7.51688 7.51688ZM4.86164 10.9051C6.30047 11.3658 7.94594 11.7543 9.74141 12.062C9.24141 14.1844 8.94711 16.4682 8.87687 18.827H2.38562C2.57 15.9963 3.42016 13.2947 4.86164 10.9051ZM4.73391 28.878C3.37023 26.5421 2.56445 23.9185 2.38555 21.173H8.88133C8.95805 23.4644 9.24648 25.6833 9.72961 27.7501C7.89727 28.0471 6.21047 28.4258 4.73391 28.878ZM7.51688 32.4831C7.02242 31.9884 6.55728 31.4653 6.12383 30.9163C7.39906 30.5627 8.82469 30.2633 10.3593 30.0231C10.7913 31.3593 11.312 32.6095 11.9162 33.7467C12.4763 34.8009 13.0922 35.7271 13.7529 36.5205C11.4396 35.6469 9.31781 34.2839 7.51688 32.4831ZM18.8269 37.3527C17.045 36.8536 15.3594 35.2264 13.9881 32.6458C13.5085 31.7433 13.0873 30.7587 12.7264 29.7093C14.6584 29.4966 16.7143 29.3709 18.8269 29.3414V37.3527ZM18.8269 26.9951C16.4841 27.027 14.2005 27.1741 12.062 27.4253C11.5903 25.4752 11.3065 23.3645 11.2286 21.1731H18.827V26.9951H18.8269ZM18.8269 18.8269H11.2241C11.2953 16.5742 11.5837 14.4046 12.0701 12.4049C14.1949 12.6705 16.4737 12.8321 18.8269 12.8784V18.8269ZM18.8269 10.5319C16.7061 10.4891 14.6548 10.3509 12.7364 10.1252C13.0951 9.0868 13.513 8.11211 13.9881 7.21781C15.3593 4.63719 17.045 3.01 18.8269 2.51086V10.5319ZM35.2123 11.0297C36.6087 13.3885 37.4331 16.0452 37.6145 18.8269H31.1233C31.0538 16.4953 30.7652 14.2371 30.2756 12.1357C32.0829 11.8438 33.7488 11.4725 35.2123 11.0297ZM32.483 7.51688C32.9503 7.98465 33.3915 8.47785 33.8045 8.99422C32.5487 9.33711 31.1504 9.62813 29.6479 9.86234C29.2145 8.51797 28.6914 7.26039 28.0838 6.11695C27.5698 5.14961 27.009 4.28953 26.4096 3.54125C28.6598 4.4168 30.7245 5.7582 32.483 7.51688ZM21.1731 21.1731H28.7715C28.693 23.3816 28.4054 25.5083 27.927 27.4709C25.8024 27.2068 23.5247 27.0467 21.1731 27.0017V21.1731ZM21.1731 18.8269V12.8862C23.5173 12.8554 25.8026 12.7095 27.9431 12.4593C28.4216 14.4439 28.7053 16.5946 28.7759 18.8269H21.1731ZM21.173 2.51086H21.173C22.9549 3.01 24.6405 4.63719 26.0118 7.21781C26.4945 8.12617 26.9181 9.11766 27.2805 10.1747C25.3459 10.3866 23.2877 10.5113 21.173 10.5398V2.51086ZM21.1731 37.3527V29.3482C23.2919 29.3898 25.3416 29.5268 27.2593 29.751C26.9016 30.7848 26.485 31.7552 26.0119 32.6458C24.6406 35.2264 22.955 36.8536 21.1731 37.3527ZM32.483 32.4831C30.6822 34.284 28.5604 35.6469 26.247 36.5205C26.9077 35.727 27.5236 34.8009 28.0837 33.7467C28.6791 32.6263 29.193 31.3961 29.6213 30.0822C31.142 30.3332 32.5488 30.6436 33.8021 31.0087C33.3898 31.524 32.9494 32.0162 32.483 32.4831ZM35.2036 28.9851C33.7477 28.517 32.0786 28.1232 30.2563 27.8124C30.7481 25.728 31.0413 23.4874 31.1188 21.1731H37.6146C37.4327 23.9605 36.6054 26.6226 35.2036 28.9851Z" fill="white"/>
</svg>
